<?xml version="1.0" encoding="UTF-8"?>
<!DOCTYPE svg PUBLIC "-//W3C//DTD SVG 1.1//EN" "http://www.w3.org/Graphics/SVG/1.1/DTD/svg11.dtd">
<!-- Creator: CorelDRAW -->
<svg xmlns="http://www.w3.org/2000/svg" xml:space="preserve" width="46.3867mm" height="38.2355mm" style="shape-rendering:geometricPrecision; text-rendering:geometricPrecision; image-rendering:optimizeQuality; fill-rule:evenodd; clip-rule:evenodd"
viewBox="0 0 46.3866 38.2354"
 xmlns:xlink="http://www.w3.org/1999/xlink">
 <defs>
  <style type="text/css">
   <![CDATA[
    .fil0 {fill:#19648A;fill-rule:nonzero}
   ]]>
  </style>
 </defs>
 <g id="Camada_x0020_1">
  <metadata id="CorelCorpID_0Corel-Layer"/>
  <path class="fil0" d="M42.0733 12.5878c-1.4523,0 -2.63039,1.1775 -2.63039,2.62459 0,1.4469 1.1781,2.62589 2.63039,2.62589 1.4469,0 2.62589,-1.179 2.62589,-2.62589 0,-1.4471 -1.179,-2.62459 -2.62589,-2.62459zm-37.7553 0l0 0c-1.4521,0 -2.63069,1.1775 -2.63069,2.62459 0,1.4469 1.1786,2.62589 2.63069,2.62589 1.4473,0 2.62669,-1.179 2.62669,-2.62589 0,-1.4471 -1.1794,-2.62459 -2.62669,-2.62459zm29.9423 -4.77709l0 0c-2.1564,0 -3.90559,1.7506 -3.90559,3.91069 0,2.151 1.7492,3.90169 3.90559,3.90169 2.157,0 3.91139,-1.7507 3.91139,-3.90169 0,-2.157 -1.7604,-3.91069 -3.91139,-3.91069zm12.1263 23.766l0 0 -4.45259 0 0 -8.19638c0,-1.4082 -0.416799,-2.71529 -1.0783,-3.85409 0.391499,-0.1145 0.790298,-0.1964 1.2176,-0.1964 2.37439,0 4.31329,1.9382 4.31329,4.31839l0 7.92848zm-34.2577 -23.766l0 0c-2.1566,0 -3.91139,1.7506 -3.91139,3.91069 0,2.151 1.7548,3.90169 3.91139,3.90169 2.1508,0 3.90559,-1.7507 3.90559,-3.90169 0,-2.157 -1.7548,-3.91069 -3.90559,-3.91069zm-7.81088 11.5192l0 0c0.424999,0 0.821398,0.0818998 1.2125,0.1964 -0.670199,1.1388 -1.0781,2.44589 -1.0781,3.85409l0 8.19638 -4.45239 0 0 -7.92848c0,-2.38019 1.9386,-4.31839 4.31799,-4.31839zm18.8721 -19.3299l0 0c-3.18419,0 -5.77869,2.59169 -5.77869,5.77739 0,3.18699 2.59169,5.78179 5.77869,5.78179 3.18719,0 5.77959,-2.59479 5.77959,-5.78179 0.00299999,-3.18569 -2.59239,-5.77739 -5.77959,-5.77739zm17.3135 34.6269l0 0 -6.82379 0 0 -12.4703c0,-1.7148 -0.449599,-3.30919 -1.185,-4.73969 0.558899,-0.1653 1.1455,-0.282799 1.7595,-0.282799 3.44259,0 6.24929,2.79849 6.24929,6.24619l0 11.2466zm-27.8051 -12.4703l0 0 0 12.4703 -6.81549 0 0 -11.2466c0,-3.44469 2.80169,-6.24619 6.24899,-6.24619 0.613999,0 1.195,0.1175 1.7509,0.282799 -0.731998,1.4305 -1.1844,3.02489 -1.1844,4.73969zm1.4305 16.0788l0 0 18.1202 0 0 -16.0788c0,-4.99569 -4.06689,-9.06118 -9.05898,-9.06118 -4.99989,0 -9.06118,4.06549 -9.06118,9.06118l0 16.0788z"/>
 </g>
</svg>
