<?xml version="1.0" encoding="UTF-8"?>
<!DOCTYPE svg PUBLIC "-//W3C//DTD SVG 1.1//EN" "http://www.w3.org/Graphics/SVG/1.1/DTD/svg11.dtd">
<!-- Creator: CorelDRAW -->
<svg xmlns="http://www.w3.org/2000/svg" xml:space="preserve" width="29.7853mm" height="34.0407mm" style="shape-rendering:geometricPrecision; text-rendering:geometricPrecision; image-rendering:optimizeQuality; fill-rule:evenodd; clip-rule:evenodd"
viewBox="0 0 29.7852 34.0406"
 xmlns:xlink="http://www.w3.org/1999/xlink">
 <defs>
  <style type="text/css">
   <![CDATA[
    .fil0 {fill:#19648A;fill-rule:nonzero}
   ]]>
  </style>
 </defs>
 <g id="Camada_x0020_1">
  <metadata id="CorelCorpID_0Corel-Layer"/>
  <g id="_442507056">
   <path id="_442507560" class="fil0" d="M27.658 4.25469l-2.12789 0 0 -2.12719c0,-1.1747 -0.951297,-2.12749 -2.12729,-2.12749l-21.2755 0c-1.176,0 -2.12729,0.952797 -2.12729,2.12749l0 25.5298c0,1.1747 0.951297,2.12729 2.12729,2.12729l2.12789 0 0 2.12719c0,1.1747 0.951197,2.12879 2.12719,2.12879l21.2756 0c1.1762,0 2.12719,-0.954097 2.12719,-2.12879l0 -25.5283c0,-1.1747 -0.950997,-2.12879 -2.12719,-2.12879zm-25.5307 23.4026l0 0 0 -25.5298 21.2755 0 0 25.5298 -21.2755 0zm25.5307 4.25449l0 0 -21.2756 0 0 -2.12719 17.0204 0c1.176,0 2.12729,-0.952597 2.12729,-2.12729l0 -21.2738 2.12789 0 0 25.5283z"/>
   <path id="_442507248" class="fil0" d="M20.2115 6.38348l-10.6377 0c-0.585898,0 -1.0638,0.477898 -1.0638,1.0628 0,0.584998 0.477898,1.0629 1.0638,1.0629l10.6377 0c0.585798,0 1.0637,-0.477898 1.0637,-1.0629 0,-0.584898 -0.477898,-1.0628 -1.0637,-1.0628z"/>
   <path id="_442507200" class="fil0" d="M20.2115 12.7652l-14.8929 0c-0.585498,0 -1.0634,0.477898 -1.0634,1.063 0,0.586398 0.477898,1.0643 1.0634,1.0643l14.8929 0c0.585798,0 1.0637,-0.477898 1.0637,-1.0643 0,-0.585098 -0.477898,-1.063 -1.0637,-1.063z"/>
   <path id="_442507704" class="fil0" d="M20.2115 17.0196l-14.8929 0c-0.585498,0 -1.0634,0.477898 -1.0634,1.0645 0,0.584898 0.477898,1.0628 1.0634,1.0628l14.8929 0c0.585798,0 1.0637,-0.477898 1.0637,-1.0628 0,-0.586598 -0.477898,-1.0645 -1.0637,-1.0645z"/>
   <path id="_442507584" class="fil0" d="M20.2115 21.2756l-14.8929 0c-0.585498,0 -1.0634,0.477898 -1.0634,1.063 0,0.586398 0.477898,1.0643 1.0634,1.0643l14.8929 0c0.585798,0 1.0637,-0.477898 1.0637,-1.0643 0,-0.585098 -0.477898,-1.063 -1.0637,-1.063z"/>
  </g>
 </g>
</svg>
