<?xml version="1.0" encoding="UTF-8"?>
<!DOCTYPE svg PUBLIC "-//W3C//DTD SVG 1.1//EN" "http://www.w3.org/Graphics/SVG/1.1/DTD/svg11.dtd">
<!-- Creator: CorelDRAW -->
<svg xmlns="http://www.w3.org/2000/svg" xml:space="preserve" width="41.5702mm" height="30.2423mm" style="shape-rendering:geometricPrecision; text-rendering:geometricPrecision; image-rendering:optimizeQuality; fill-rule:evenodd; clip-rule:evenodd"
viewBox="0 0 41.5702 30.2423"
 xmlns:xlink="http://www.w3.org/1999/xlink">
 <defs>
  <style type="text/css">
   <![CDATA[
    .fil0 {fill:#19648A;fill-rule:nonzero}
   ]]>
  </style>
 </defs>
 <g id="Camada_x0020_1">
  <metadata id="CorelCorpID_0Corel-Layer"/>
  <g id="_225822864">
   <path id="_437570600" class="fil0" d="M10.3788 28.6157l-7.843 0 0 -7.6569 7.843 -6.3258 0 13.9827zm0.3029 -16.3163l-9.4704 7.6369c-0.1913,0.1549 -0.3021,0.3873 -0.3021,0.6329l0 8.8598c0,0.4491 0.3639,0.8133 0.8133,0.8133l9.4705 0c0.4492,0 0.8133,-0.3642 0.8133,-0.8133l0 -16.4966c0,-0.3134 -0.1794,-0.5988 -0.4626,-0.7337 -0.282,-0.1361 -0.6173,-0.0962 -0.862,0.1007z"/>
   <path id="_437570000" class="fil0" d="M24.1281 28.6157l-7.8429 0 0 -18.5937 1.5005 -0.9381 6.3424 6.619 0 12.9128zm-6.6448 -21.2613l-2.443 1.5268c-0.2378,0.1496 -0.383,0.4097 -0.383,0.6907l0 19.8571c0,0.4491 0.3654,0.8133 0.8146,0.8133l9.4704 0c0.4492,0 0.8133,-0.3642 0.8133,-0.8133l0 -14.0526c0,-0.2111 -0.0806,-0.4115 -0.2258,-0.563l-7.0271 -7.3329c-0.2657,-0.2776 -0.6916,-0.3309 -1.0194,-0.1261z"/>
   <path id="_437570144" class="fil0" d="M40.1922 0.1821c-4.4781,3.2917 -8.9561,6.5848 -13.4341,9.8766 -2.6059,-2.7288 -5.2117,-5.4563 -7.8172,-8.1848 -0.2723,-0.2854 -0.8202,-0.3852 -1.1587,-0.1493 -5.7859,4.0242 -11.5706,8.0474 -17.3566,12.0728 -1.0034,0.6982 -0.0486,2.3568 0.966,1.6521 5.5824,-3.8828 11.1636,-7.7655 16.7457,-11.6482 2.6102,2.7332 5.2195,5.4651 7.8297,8.1983 0.2679,0.2798 0.8278,0.3936 1.1596,0.1502 4.6772,-3.4389 9.3544,-6.8768 14.0316,-10.3157 0.9814,-0.7227 0.0276,-2.3835 -0.966,-1.652z"/>
   <path id="_439559336" class="fil0" d="M38.0215 28.6157l-7.8429 0 0.0286 -13.2497 7.8429 -6.3257 -0.0286 19.5754zm0.3316 -21.909l-9.4705 7.6368c-0.1913,0.1546 -0.302,0.3871 -0.302,0.6326l-0.0286 14.4529c0,0.4491 0.3639,0.8133 0.8133,0.8133l9.4705 0c0.4491,0 0.8133,-0.3642 0.8133,-0.8133l0.0285 -22.0897c0,-0.3133 -0.1794,-0.5984 -0.4626,-0.7333 -0.282,-0.1361 -0.6173,-0.0966 -0.8619,0.1007z"/>
  </g>
 </g>
</svg>
