<?xml version="1.0" encoding="UTF-8"?>
<!DOCTYPE svg PUBLIC "-//W3C//DTD SVG 1.1//EN" "http://www.w3.org/Graphics/SVG/1.1/DTD/svg11.dtd">
<!-- Creator: CorelDRAW -->
<svg xmlns="http://www.w3.org/2000/svg" xml:space="preserve" width="29.6798mm" height="38.9457mm" style="shape-rendering:geometricPrecision; text-rendering:geometricPrecision; image-rendering:optimizeQuality; fill-rule:evenodd; clip-rule:evenodd"
viewBox="0 0 29.6798 38.9457"
 xmlns:xlink="http://www.w3.org/1999/xlink">
 <defs>
  <style type="text/css">
   <![CDATA[
    .fil0 {fill:#19648A;fill-rule:nonzero}
   ]]>
  </style>
 </defs>
 <g id="Camada_x0020_1">
  <metadata id="CorelCorpID_0Corel-Layer"/>
  <path class="fil0" d="M19.5364 16.0297c2.4101,-1.5497 4.0104,-4.2471 4.0104,-7.3241 0,-4.8083 -3.8984,-8.7056 -8.706,-8.7056 -4.8087,0 -8.7063,3.8973 -8.7063,8.7056 0,3.077 1.5999,5.7744 4.0104,7.3241 -5.6781,0.5075 -10.1449,5.2907 -10.1449,11.0992l0 9.0362 0.0229 0.1428 0.6231 0.1936c5.8647,1.8325 10.9616,2.4442 15.1562,2.4442 8.1918,0 12.9402,-2.3371 13.2347,-2.4844l0.5816 -0.2962 0.0614 0 0 -9.0362c0,-5.8072 -4.4654,-10.5902 -10.1435,-11.0992z"/>
 </g>
</svg>
