<svg height="481pt" viewBox="0 -3 481.77533 481" width="481pt" xmlns="http://www.w3.org/2000/svg"><path d="m478.304688 428.914062-208.890626-411.023437c-5.457031-10.738281-16.480468-17.503906-28.527343-17.503906-12.042969 0-23.070313 6.765625-28.527344 17.503906l-208.886719 411.023437c-5.042968 9.921876-4.566406 21.75 1.253906 31.234376 5.820313 9.484374 16.152344 15.265624 27.28125 15.261718h417.761719c11.125.003906 21.457031-5.777344 27.277344-15.261718 5.824219-9.484376 6.296875-21.3125 1.257813-31.234376zm-14.90625 22.863282c-2.882813 4.753906-8.042969 7.648437-13.597657 7.632812h-417.792969c-5.566406.003906-10.730468-2.886718-13.644531-7.628906-2.910156-4.742188-3.148437-10.65625-.628906-15.617188l208.890625-411.023437c2.726562-5.371094 8.238281-8.753906 14.261719-8.753906 6.023437 0 11.535156 3.382812 14.265625 8.753906l208.886718 411.023437c2.542969 4.957032 2.300782 10.882813-.640624 15.613282zm0 0"/><path d="m240.886719 107.410156c-10.496094-.003906-20.527344 4.347656-27.699219 12.011719-7.171875 7.667969-10.84375 17.964844-10.140625 28.4375l12.863281 193.152344c.867188 12.59375 11.320313 22.375 23.945313 22.398437h2.0625c12.625-.023437 23.082031-9.804687 23.945312-22.398437l12.878907-193.144531c.707031-10.476563-2.96875-20.78125-10.140626-28.449219-7.175781-7.667969-17.210937-12.015625-27.714843-12.007813zm9.023437 232.535156c-.28125 4.210938-3.78125 7.476563-8 7.464844h-2.0625c-4.21875.011719-7.722656-3.261718-8-7.472656l-12.878906-193.140625c-.542969-8.167969 3.507812-15.957031 10.503906-20.203125 6.992188-4.246094 15.773438-4.246094 22.765625 0 6.996094 4.246094 11.046875 12.035156 10.503907 20.203125zm0 0"/><path d="m240.886719 379.410156c-17.671875 0-32 14.328125-32 32 0 17.675782 14.328125 32 32 32 17.675781 0 32-14.324218 32-32 0-17.671875-14.324219-32-32-32zm0 48c-8.835938 0-16-7.164062-16-16 0-8.835937 7.164062-16 16-16 8.835937 0 16 7.164063 16 16 0 8.835938-7.164063 16-16 16zm0 0"/></svg>